<?xml version="1.0" encoding="UTF-8"?>
<svg id="Layer_1" data-name="Layer 1" xmlns="http://www.w3.org/2000/svg" viewBox="0 0 300 100">
  <defs>
    <style>
      .cls-1 {
        fill: #4d1217;
      }
    </style>
  </defs>
  <path class="cls-1" d="M228.81,71.3c4.67,0,5.12-4.52,5.12-6.78V27.03h-16.87v.45h5.42v37.79c0,1.96.15,6.78-5.88,6.78-.6,0-.6.45.15.45h20.79v-.6h-8.89c-.6,0-.3-.6.15-.6"/>
  <rect class="cls-1" x="233.93" y="71.9" width="3.62" height=".6"/>
  <path class="cls-1" d="M238.45,49.45c3.46,0,8.44,1.81,8.44,5.42v.9c0,.45.45.45.45,0v-13.56c0-.6-.45-.6-.45,0v1.05c0,3.77-4.97,5.42-8.44,5.42v.75Z"/>
  <path class="cls-1" d="M251.4,27.48c-8.44,0-12.2,7.83-12.2,12.95,0,.9-.75.75-.75,0v-13.41h12.96v.45Z"/>
  <path class="cls-1" d="M255.9,27.48v37.79c0,1.96.15,6.78-5.87,6.78-.6,0-.6.45.15.45h20.79v-.6h-8.89c-.6,0-.3-.6.15-.6,4.67,0,5.12-4.52,5.12-6.78V27.03h-11.45v.45Z"/>
  <rect class="cls-1" x="266.63" y="71.9" width="3.62" height=".6"/>
  <path class="cls-1" d="M271.87,27.48c8.44,0,12.2,7.83,12.2,12.95,0,.9.75.75.75,0v-13.41h-12.96v.45Z"/>
  <g>
    <path class="cls-1" d="M19.91,39.91c0,.65.03,1.15.1,1.52.06.36.2.65.4.86.2.21.5.37.89.49.39.11.91.23,1.58.36v.29c-.7-.03-1.38-.06-2.06-.07-.68-.02-1.37-.02-2.07-.02-.6,0-1.19,0-1.79.02-.59.02-1.19.04-1.79.07v-.29c.58-.05,1.04-.14,1.37-.27.33-.13.59-.33.77-.61.18-.28.29-.64.34-1.08.05-.45.07-1.01.07-1.69v-8.11c0-.68-.02-1.24-.07-1.69-.05-.45-.16-.81-.34-1.08-.18-.28-.43-.48-.77-.61-.33-.13-.79-.22-1.37-.27v-.29c.23.02.53.03.9.04.37,0,.76.02,1.15.02.4,0,.78.02,1.14.02.36,0,.66.01.89.01h5.27c.4,0,.79,0,1.14-.01.36,0,.7-.02,1.03-.02.33,0,.66-.02.98-.02.32,0,.66-.02,1.02-.04-.03.34-.06.68-.07,1.01-.02.33-.02.66-.02.98,0,.42,0,.84.02,1.25.02.41.04.83.07,1.25h-.39c-.26-.92-.6-1.64-1.01-2.15s-.9-.88-1.46-1.12c-.56-.23-1.19-.38-1.89-.43-.7-.05-1.49-.07-2.34-.07-.28,0-.55,0-.83.02-.28.02-.57.02-.87.02v6.02h1.94c.97,0,1.72-.2,2.26-.61s.96-1.07,1.29-1.99h.29c-.05,1.1-.07,2.2-.07,3.3,0,.58,0,1.12.01,1.62,0,.49.03,1.02.06,1.59h-.29c-.16-.6-.33-1.1-.51-1.49-.18-.4-.39-.72-.64-.96-.25-.24-.55-.42-.91-.53-.36-.11-.79-.19-1.31-.24-.29-.03-.62-.05-.97-.05h-1.14v5.03Z"/>
    <path class="cls-1" d="M36.7,36.31l-1.6,4.4c-.05.13-.09.24-.13.34-.04.1-.06.2-.06.32,0,.29.08.54.25.75.17.21.38.38.62.52.24.14.49.25.75.33.26.08.48.14.66.17v.29c-.49-.03-.97-.06-1.46-.07-.49-.02-.98-.02-1.48-.02s-.96,0-1.42.02c-.46.02-.95.04-1.47.07v-.29c.5-.11.92-.29,1.25-.52.33-.23.61-.51.84-.84.23-.32.42-.68.58-1.07.16-.39.33-.79.51-1.21l4.2-10.33c.05-.11.09-.22.13-.32.04-.1.06-.19.06-.27s-.03-.2-.09-.36c-.06-.16-.13-.31-.21-.44.42-.08.79-.19,1.09-.32.31-.13.65-.27,1.02-.41l5.05,13.9c.23.63.54,1.13.95,1.49.4.36,1,.6,1.8.69v.29c-.65-.03-1.29-.06-1.92-.07-.63-.02-1.28-.02-1.94-.02-.44,0-.82,0-1.14.01-.32,0-.62.02-.87.02-.26,0-.51.02-.74.02-.23,0-.49.02-.77.04v-.29c.68-.08,1.25-.26,1.71-.52.46-.27.69-.63.69-1.08,0-.13-.03-.26-.09-.39-.06-.13-.1-.25-.13-.36l-1.58-4.47h-5.08ZM39.32,29.41l-2.38,6.17h4.57l-2.19-6.17Z"/>
    <path class="cls-1" d="M51.47,43.14c.58-.05,1.04-.14,1.36-.27.32-.13.57-.33.74-.61.17-.28.28-.64.32-1.08.04-.45.06-1.01.06-1.69v-8.11c0-.68-.02-1.24-.06-1.69-.04-.45-.15-.81-.32-1.08-.17-.28-.43-.48-.77-.61-.34-.13-.8-.22-1.38-.27v-.29c.66.03,1.32.06,1.98.07.66.02,1.32.02,1.98.02.53,0,1.07,0,1.6-.02.53-.02,1.06-.04,1.58-.07v.29c-.57.05-1.01.14-1.34.27-.32.13-.57.33-.73.61-.16.28-.26.64-.3,1.08-.04.45-.06,1.01-.06,1.69v8.11c0,.68.02,1.24.06,1.69.04.45.15.81.32,1.08.17.28.43.48.77.61.34.13.81.22,1.41.27v.29c-.62-.03-1.23-.06-1.85-.07-.62-.02-1.23-.02-1.85-.02s-1.19,0-1.77.02c-.58.02-1.17.04-1.75.07v-.29Z"/>
    <path class="cls-1" d="M73.53,32.06c-.21-.52-.48-1.03-.81-1.54-.33-.51-.72-.96-1.15-1.36-.44-.4-.93-.72-1.47-.96-.54-.24-1.12-.36-1.74-.36-.92,0-1.68.17-2.27.51-.59.34-.89.95-.89,1.82,0,.7.23,1.27.7,1.71.47.45,1.05.84,1.75,1.19.7.35,1.45.68,2.27,1,.82.32,1.58.69,2.27,1.13.7.44,1.28.98,1.75,1.62.47.64.7,1.45.7,2.44,0,.79-.15,1.48-.44,2.05-.29.58-.68,1.05-1.18,1.42-.49.37-1.07.65-1.72.83-.66.18-1.36.27-2.1.27-.41,0-.83-.04-1.26-.11-.44-.08-.86-.16-1.26-.25-.41-.09-.77-.18-1.11-.25-.33-.08-.6-.11-.79-.11-.18,0-.35.03-.51.09-.16.06-.33.13-.51.2-.15-.94-.32-1.85-.51-2.75-.19-.89-.4-1.79-.61-2.7l.32-.17c.29.57.64,1.16,1.06,1.77.41.62.88,1.18,1.4,1.69.52.51,1.09.94,1.71,1.28.62.34,1.3.51,2.03.51.47,0,.92-.05,1.36-.16.44-.11.82-.27,1.15-.5.33-.23.6-.52.79-.89.19-.36.29-.81.29-1.35,0-.78-.23-1.42-.7-1.92-.47-.5-1.05-.94-1.75-1.32-.7-.38-1.45-.73-2.27-1.06-.82-.32-1.58-.69-2.27-1.09-.7-.4-1.28-.88-1.75-1.43-.47-.55-.7-1.24-.7-2.09,0-.63.12-1.2.36-1.72.24-.52.57-.96.98-1.32.41-.36.89-.64,1.45-.84.55-.19,1.13-.29,1.72-.29s1.14.04,1.62.12c.48.08.94.17,1.4.27.47.1.93.19,1.38.28.45.09.94.13,1.46.13,0,.71.01,1.42.04,2.11.02.7.08,1.39.16,2.09h-.34Z"/>
    <path class="cls-1" d="M83.12,36.31l-1.6,4.4c-.05.13-.09.24-.13.34-.04.1-.06.2-.06.32,0,.29.08.54.25.75.17.21.38.38.62.52.24.14.49.25.75.33.26.08.48.14.66.17v.29c-.49-.03-.97-.06-1.46-.07-.49-.02-.98-.02-1.48-.02s-.96,0-1.42.02c-.46.02-.95.04-1.47.07v-.29c.5-.11.92-.29,1.25-.52.33-.23.61-.51.84-.84.23-.32.42-.68.58-1.07.16-.39.33-.79.51-1.21l4.2-10.33c.05-.11.09-.22.13-.32.04-.1.06-.19.06-.27s-.03-.2-.09-.36c-.06-.16-.13-.31-.21-.44.42-.08.79-.19,1.09-.32.31-.13.65-.27,1.02-.41l5.05,13.9c.23.63.54,1.13.95,1.49.4.36,1,.6,1.8.69v.29c-.65-.03-1.29-.06-1.92-.07-.63-.02-1.28-.02-1.94-.02-.44,0-.82,0-1.14.01-.32,0-.62.02-.87.02-.26,0-.51.02-.74.02-.23,0-.49.02-.77.04v-.29c.68-.08,1.25-.26,1.71-.52.46-.27.69-.63.69-1.08,0-.13-.03-.26-.09-.39-.06-.13-.1-.25-.13-.36l-1.58-4.47h-5.08ZM85.75,29.41l-2.38,6.17h4.57l-2.19-6.17Z"/>
    <path class="cls-1" d="M105.52,27.73c-.78.11-1.38.24-1.82.38s-.76.32-.96.55c-.2.23-.33.51-.38.84-.05.33-.07.74-.07,1.23v11.66c.44.08.86.15,1.28.22.41.06.83.1,1.25.1.96,0,1.79-.1,2.5-.29.71-.19,1.35-.49,1.92-.87.57-.39,1.09-.88,1.57-1.47.48-.59.96-1.28,1.45-2.08h.36l-1.87,5.44c-.58-.03-1.17-.06-1.76-.07-.59-.02-1.18-.02-1.76-.02h-7.14c-.41,0-.81,0-1.21.02-.41.02-.81.04-1.21.07v-.29c.53-.05.96-.13,1.28-.24.32-.11.56-.25.74-.43.18-.17.3-.38.35-.62.06-.24.08-.53.08-.85v-9.62c0-.68-.02-1.24-.06-1.69-.04-.45-.14-.81-.3-1.08-.16-.28-.41-.48-.73-.61-.32-.13-.78-.22-1.36-.27v-.29c.63.03,1.26.06,1.88.07.62.02,1.25.02,1.88.02.68,0,1.36,0,2.05-.02.69-.02,1.37-.04,2.05-.07v.29Z"/>
    <path class="cls-1" d="M118.59,43.14c.58-.05,1.04-.14,1.36-.27.32-.13.57-.33.74-.61.17-.28.28-.64.32-1.08.04-.45.06-1.01.06-1.69v-11.27c-.84,0-1.55.03-2.14.1-.58.06-1.09.23-1.52.5-.43.27-.8.68-1.11,1.23-.31.55-.62,1.3-.92,2.26l-.32-.1.34-4.76c.68.03,1.35.06,2.02.07.66.02,1.34.02,2.02.02h5.71c.65,0,1.29,0,1.92-.02.63-.02,1.27-.04,1.92-.07l.34,4.76-.32.1c-.31-.96-.62-1.71-.94-2.26-.32-.55-.68-.96-1.11-1.23-.42-.27-.93-.43-1.53-.5-.6-.06-1.33-.1-2.19-.1v11.27c0,.68.02,1.24.06,1.69.04.45.15.81.32,1.08.17.28.43.48.77.61.34.13.81.22,1.41.27v.29c-.62-.03-1.23-.06-1.85-.07-.62-.02-1.23-.02-1.85-.02s-1.19,0-1.77.02c-.58.02-1.17.04-1.75.07v-.29Z"/>
    <path class="cls-1" d="M133.02,35.44c0-1.31.24-2.49.72-3.52.48-1.04,1.12-1.92,1.93-2.64.81-.72,1.76-1.27,2.85-1.65,1.09-.38,2.26-.57,3.49-.57s2.39.19,3.49.57c1.09.38,2.04.93,2.85,1.65.81.72,1.45,1.6,1.93,2.64.48,1.04.72,2.21.72,3.52s-.24,2.49-.72,3.52c-.48,1.04-1.12,1.92-1.93,2.64-.81.72-1.76,1.27-2.85,1.65-1.09.38-2.26.57-3.49.57s-2.39-.19-3.49-.57c-1.09-.38-2.04-.93-2.85-1.65-.81-.72-1.45-1.6-1.93-2.64-.48-1.04-.72-2.21-.72-3.52ZM135.6,35.44c0,.99.15,1.94.44,2.84.29.91.71,1.7,1.26,2.39.55.69,1.22,1.24,2.02,1.65.79.41,1.69.62,2.7.62s1.9-.21,2.7-.62c.79-.41,1.47-.96,2.02-1.65.55-.69.97-1.49,1.26-2.39.29-.91.44-1.85.44-2.84s-.15-1.94-.44-2.84c-.29-.91-.71-1.7-1.26-2.39-.55-.69-1.22-1.24-2.02-1.65-.79-.41-1.69-.62-2.7-.62s-1.9.21-2.7.62c-.79.41-1.47.96-2.02,1.65-.55.69-.97,1.49-1.26,2.39-.29.91-.44,1.85-.44,2.84Z"/>
    <path class="cls-1" d="M153.67,27.44c.58.03,1.17.06,1.75.07.58.02,1.16.02,1.72.02.65,0,1.29,0,1.92-.02.63-.02,1.26-.04,1.89-.07v.29c-.28.03-.55.07-.83.12-.28.05-.52.13-.74.26-.22.12-.4.29-.53.5-.14.21-.21.49-.21.83,0,.23.06.51.19.84.13.33.28.73.46,1.18l3.38,8.92,3.01-7.46-1.26-3.16c-.5-1.26-1.42-1.94-2.75-2.02v-.29c.53.03,1.07.06,1.6.07.53.02,1.07.02,1.6.02.68,0,1.36,0,2.03-.02.67-.02,1.35-.04,2.03-.07v.29c-.21.02-.45.05-.72.11-.27.06-.52.14-.75.24-.23.11-.43.25-.59.43-.16.18-.24.41-.24.68,0,.15.04.34.11.58.07.24.19.58.35,1l3.62,9.6,3.69-9.3c.06-.16.12-.34.18-.52.06-.19.11-.37.16-.55.05-.18.08-.34.11-.5.02-.15.04-.28.04-.38,0-.24-.08-.45-.23-.62-.15-.17-.34-.31-.57-.41-.23-.11-.47-.19-.72-.24-.25-.06-.47-.09-.67-.11v-.29c.53.03,1.06.06,1.59.07.53.02,1.05.02,1.57.02.47,0,.94,0,1.41-.02.47-.02.94-.04,1.41-.07v.29c-.49.05-.9.17-1.23.38-.33.2-.61.44-.84.72-.23.28-.42.57-.58.89-.16.32-.31.63-.44.94l-5.54,12.92h-.41l-3.55-9.64-4.06,9.64h-.44l-4.93-13.09c-.24-.63-.48-1.12-.72-1.47-.24-.35-.48-.61-.73-.79-.25-.18-.51-.29-.77-.34s-.53-.1-.8-.15v-.29Z"/>
    <path class="cls-1" d="M180.44,27.44c.57.03,1.11.06,1.62.07.51.02,1.11.02,1.79.02.36,0,.7,0,1.04-.02.34-.02.69-.04,1.04-.07.21.29.56.73,1.04,1.32.49.59,1.04,1.27,1.66,2.03.62.76,1.29,1.58,2,2.44.71.87,1.4,1.7,2.06,2.51.66.81,1.28,1.57,1.83,2.27s1,1.28,1.32,1.74h.05c0-.49,0-.97.01-1.45,0-.48.01-.96.01-1.45v-2.82c0-1.04-.04-1.94-.11-2.71-.07-.77-.22-1.41-.44-1.93-.22-.52-.53-.91-.92-1.19-.4-.28-.92-.44-1.57-.49v-.29c.57.03,1.14.06,1.71.07.57.02,1.15.02,1.71.02.52,0,1.04,0,1.58-.02.53-.02,1.06-.04,1.58-.07v.29c-.52.08-.95.19-1.29.33-.34.14-.61.32-.81.56-.2.23-.35.53-.44.87-.09.35-.13.77-.13,1.25v12.88h-.9c-.89-1.39-1.83-2.75-2.83-4.07-1-1.32-1.98-2.57-2.96-3.74-.98-1.17-1.93-2.27-2.84-3.28-.92-1.01-1.74-1.92-2.47-2.71-.02.42-.03.83-.04,1.24,0,.41-.01.82-.01,1.24v4.25c0,1.44.03,2.58.09,3.41.06.83.19,1.47.41,1.92.22.45.54.75.97.9.43.15,1.02.27,1.79.35v.29c-.81-.03-1.61-.06-2.4-.07-.79-.02-1.6-.02-2.41-.02-.47,0-.93,0-1.38.02-.45.02-.92.04-1.39.07v-.29c.55-.06,1.03-.14,1.45-.22.41-.08.75-.21,1.02-.38.27-.17.47-.41.61-.73.14-.32.21-.76.23-1.32l.29-11.15c-.52-.42-1.09-.75-1.7-1-.62-.24-1.25-.45-1.9-.61v-.29Z"/>
    <path class="cls-1" d="M116.89,61.79c-.31-.62-.64-1.21-.98-1.8-.35-.58-.75-1.1-1.2-1.55-.45-.45-.98-.82-1.57-1.09-.59-.28-1.28-.41-2.08-.41-.92,0-1.75.23-2.47.69-.72.46-1.34,1.06-1.85,1.79-.51.73-.9,1.55-1.17,2.45-.27.91-.4,1.81-.4,2.7,0,1.02.13,1.99.4,2.9.27.92.66,1.71,1.17,2.39.51.68,1.13,1.22,1.85,1.63.72.41,1.54.61,2.47.61.76,0,1.52-.08,2.27-.23.75-.15,1.45-.47,2.1-.94v-3.13c0-1.1-.83-1.68-2.5-1.72v-.29c.31.02.6.03.87.04.28,0,.55.02.83.02.28,0,.55.02.84.02.28,0,.59.01.91.01.6,0,1.2,0,1.8-.02.6-.02,1.2-.04,1.8-.07v.29c-.34.03-.66.08-.95.15-.29.06-.54.17-.74.32s-.36.34-.49.58c-.12.24-.18.56-.18.95v3.4c-1.12.37-2.22.72-3.32,1.03-1.09.32-2.15.47-3.17.47-1.09,0-2.15-.18-3.18-.55-1.04-.36-1.96-.9-2.78-1.62-.82-.71-1.47-1.59-1.97-2.62-.49-1.04-.74-2.24-.74-3.6,0-1.18.25-2.29.74-3.32.49-1.03,1.15-1.92,1.97-2.66.82-.74,1.74-1.33,2.78-1.76,1.04-.43,2.1-.64,3.18-.64.66,0,1.26.03,1.8.09.53.06,1.02.13,1.46.22s.83.18,1.19.28.7.19,1.02.27c0,.28.02.62.07,1.04.05.42.1.86.16,1.32.06.46.12.91.18,1.34.06.43.12.77.17,1.03h-.29Z"/>
    <path class="cls-1" d="M139.9,72.48h-4.37c-1-1.1-1.95-2.24-2.83-3.43-.88-1.18-1.66-2.43-2.32-3.74-.16,0-.37-.01-.62-.04-.25-.02-.51-.06-.78-.11-.27-.05-.53-.1-.78-.16-.25-.06-.46-.11-.62-.16v3.79c0,.68.02,1.24.06,1.69.04.45.15.81.32,1.08.17.28.43.48.77.61.34.13.81.22,1.41.27v.29c-.62-.03-1.23-.06-1.85-.07-.62-.02-1.23-.02-1.85-.02s-1.19,0-1.77.02c-.58.02-1.17.04-1.75.07v-.29c.58-.05,1.04-.14,1.36-.27.32-.13.57-.33.74-.61s.28-.64.32-1.08c.04-.45.06-1.01.06-1.69v-8.11c0-.68-.02-1.24-.06-1.69-.04-.45-.15-.81-.32-1.08-.17-.28-.42-.48-.74-.61-.32-.13-.78-.22-1.36-.27v-.29c.52.03,1.04.06,1.55.07.52.02,1.04.02,1.55.02.23,0,.51-.01.85-.04.34-.02.7-.05,1.08-.08.38-.03.77-.06,1.15-.08s.74-.04,1.04-.04c.7,0,1.41.09,2.14.27s1.38.46,1.97.85c.58.39,1.06.88,1.43,1.48s.56,1.31.56,2.14c0,.57-.1,1.07-.3,1.51-.2.44-.47.82-.81,1.14-.34.32-.74.59-1.19.8-.45.21-.94.36-1.46.46.34.58.77,1.26,1.3,2.04.53.78,1.11,1.53,1.75,2.25.64.72,1.33,1.35,2.08,1.88.74.53,1.51.84,2.28.92v.29ZM127.58,64.03c.36.13.73.23,1.12.3.39.07.77.11,1.14.11,1.26,0,2.24-.29,2.94-.87.7-.58,1.04-1.53,1.04-2.84,0-.53-.1-1.02-.3-1.45-.2-.43-.48-.8-.84-1.12-.36-.32-.77-.56-1.23-.73-.46-.17-.94-.25-1.45-.25-.4,0-.8.02-1.19.05-.39.03-.77.11-1.14.22-.03.78-.06,1.56-.07,2.36-.02.79-.02,1.65-.02,2.57v1.65Z"/>
    <path class="cls-1" d="M142.47,64.59c0-1.31.24-2.49.72-3.52.48-1.04,1.12-1.92,1.93-2.64.81-.72,1.76-1.27,2.85-1.65,1.09-.38,2.26-.57,3.49-.57s2.39.19,3.49.57c1.09.38,2.04.93,2.85,1.65.81.72,1.45,1.6,1.93,2.64.48,1.04.72,2.21.72,3.52s-.24,2.49-.72,3.52c-.48,1.04-1.12,1.92-1.93,2.64s-1.76,1.27-2.85,1.65c-1.09.38-2.26.57-3.49.57s-2.39-.19-3.49-.57c-1.09-.38-2.04-.93-2.85-1.65s-1.45-1.6-1.93-2.64c-.48-1.04-.72-2.21-.72-3.52ZM145.05,64.59c0,.99.15,1.94.44,2.84.29.91.71,1.7,1.26,2.39.55.69,1.22,1.24,2.02,1.65s1.69.62,2.7.62,1.9-.21,2.7-.62c.79-.41,1.47-.96,2.02-1.65.55-.69.97-1.49,1.26-2.39.29-.91.44-1.85.44-2.84s-.15-1.94-.44-2.84c-.29-.91-.71-1.7-1.26-2.39-.55-.69-1.22-1.24-2.02-1.65-.79-.41-1.69-.62-2.7-.62s-1.9.21-2.7.62-1.47.96-2.02,1.65c-.55.69-.97,1.49-1.26,2.39-.29.91-.44,1.85-.44,2.84Z"/>
    <path class="cls-1" d="M166.5,59.05c0-.45-.04-.81-.13-1.06-.09-.25-.22-.45-.4-.59-.18-.15-.4-.25-.66-.32-.26-.06-.56-.13-.9-.19v-.29c.68.03,1.35.06,2,.07.66.02,1.32.02,2,.02.49,0,.97,0,1.45-.02.48-.02.96-.04,1.45-.07v.29c-.52.05-.95.13-1.29.23-.34.11-.61.27-.8.49s-.33.49-.41.83c-.08.33-.12.74-.12,1.23v7.92c0,.76.13,1.41.38,1.93.25.53.59.96,1.03,1.29.44.33.94.58,1.52.73.57.15,1.19.23,1.83.23,1.04,0,1.89-.15,2.55-.46.66-.31,1.19-.68,1.58-1.13.39-.45.66-.92.8-1.43.15-.51.22-.96.22-1.35v-6.8c0-.65-.03-1.19-.1-1.64-.06-.45-.18-.81-.35-1.09-.17-.28-.41-.5-.7-.64-.3-.15-.69-.25-1.18-.32v-.29c.5.03,1,.06,1.49.07.49.02.99.02,1.49.02.42,0,.83,0,1.24-.02.4-.02.82-.04,1.24-.07v.29c-.34.05-.65.11-.94.19-.28.08-.52.23-.72.44-.19.21-.34.51-.45.91-.11.4-.16.94-.16,1.62v7.26c0,.97-.17,1.81-.52,2.51-.35.7-.82,1.29-1.42,1.76-.6.47-1.3.82-2.1,1.04-.8.23-1.66.34-2.56.34-.83,0-1.62-.11-2.38-.33-.76-.22-1.44-.55-2.03-1-.59-.45-1.06-1-1.42-1.66s-.53-1.43-.53-2.31v-8.62Z"/>
    <path class="cls-1" d="M192.74,72.58c-.62-.03-1.23-.06-1.83-.07-.61-.02-1.22-.02-1.83-.02s-1.19,0-1.79.02c-.59.02-1.2.04-1.83.07v-.29c.6-.05,1.07-.14,1.42-.27.35-.13.61-.33.78-.61.17-.28.28-.64.32-1.08.04-.45.06-1.01.06-1.69v-8.11c0-.68-.02-1.24-.06-1.69-.04-.45-.15-.81-.32-1.08-.17-.28-.43-.48-.77-.61-.34-.13-.8-.22-1.39-.27v-.29c.53.03,1.07.06,1.6.07.53.02,1.07.02,1.6.02.78,0,1.54-.04,2.3-.12.75-.08,1.52-.12,2.3-.12.6,0,1.23.11,1.88.33s1.26.53,1.81.95c.55.41,1,.92,1.35,1.51.35.59.52,1.26.52,2s-.18,1.43-.53,1.97-.81.97-1.35,1.3c-.54.33-1.15.57-1.81.72-.66.15-1.31.22-1.94.22-.49,0-.99-.03-1.51-.08s-1.02-.17-1.51-.35v3.64c0,.68.02,1.24.06,1.69.04.45.15.81.32,1.08.17.28.43.48.77.61.34.13.8.22,1.39.27v.29ZM190.21,64.13c.39.21.79.35,1.2.43.41.07.83.11,1.25.11.5,0,.98-.08,1.45-.23.46-.15.86-.37,1.2-.66.34-.28.61-.64.81-1.06.2-.42.3-.9.3-1.43,0-.63-.1-1.21-.3-1.72-.2-.52-.48-.96-.84-1.31-.36-.36-.78-.63-1.28-.83-.49-.19-1.03-.29-1.62-.29-.29,0-.64.02-1.03.06-.4.04-.78.14-1.15.3v6.63Z"/>
  </g>
</svg>