<svg width="24" height="24" viewBox="0 0 24 24" fill="none" xmlns="http://www.w3.org/2000/svg">
<path d="M4.00001 10.625L3.00001 11.4C2.76668 11.5667 2.51668 11.6334 2.25001 11.6C1.98334 11.5667 1.76668 11.4334 1.60001 11.2C1.43334 10.9667 1.37101 10.7167 1.41301 10.45C1.45501 10.1834 1.58401 9.96669 1.80001 9.80002L10.775 2.92502C10.9583 2.79169 11.1543 2.69169 11.363 2.62502C11.5717 2.55836 11.784 2.52502 12 2.52502C12.216 2.52502 12.4287 2.55836 12.638 2.62502C12.8473 2.69169 13.043 2.79169 13.225 2.92502L22.225 9.80002C22.4417 9.96669 22.5667 10.1877 22.6 10.463C22.6333 10.7384 22.5667 10.984 22.4 11.2C22.2333 11.416 22.0167 11.541 21.75 11.575C21.4833 11.609 21.2417 11.5424 21.025 11.375L12 4.52502L6.00001 9.10002V18H10C10.2833 18 10.521 18.096 10.713 18.288C10.905 18.48 11.0007 18.7174 11 19C10.9993 19.2827 10.9033 19.5204 10.712 19.713C10.5207 19.9057 10.2833 20.0014 10 20H6.00001C5.45001 20 4.97934 19.8044 4.58801 19.413C4.19668 19.0217 4.00068 18.5507 4.00001 18V10.625ZM13.75 23C13.5333 23 13.3543 22.929 13.213 22.787C13.0717 22.645 13.0007 22.466 13 22.25C12.9993 22.034 13.0703 21.855 13.213 21.713C13.3557 21.571 13.5347 21.5 13.75 21.5H14.425C13.9917 21.05 13.646 20.525 13.388 19.925C13.13 19.325 13.0007 18.6834 13 18C13 16.9834 13.275 16.0627 13.825 15.238C14.375 14.4134 15.1 13.809 16 13.425C16.1833 13.3417 16.3543 13.3417 16.513 13.425C16.6717 13.5084 16.7923 13.6417 16.875 13.825C16.9577 14.0084 16.966 14.196 16.9 14.388C16.834 14.58 16.6757 14.7424 16.425 14.875C15.8417 15.1584 15.375 15.5794 15.025 16.138C14.675 16.6967 14.5 17.3174 14.5 18C14.5 18.4834 14.5877 18.9334 14.763 19.35C14.9383 19.7667 15.184 20.1334 15.5 20.45V19.75C15.5 19.5334 15.571 19.3544 15.713 19.213C15.855 19.0717 16.034 19.0007 16.25 19C16.466 18.9994 16.6453 19.0704 16.788 19.213C16.9307 19.3557 17.0013 19.5347 17 19.75V22C17 22.2834 16.904 22.521 16.712 22.713C16.52 22.905 16.2827 23.0007 16 23H13.75ZM20.025 22.575C19.8417 22.6584 19.6667 22.6584 19.5 22.575C19.3333 22.4917 19.2083 22.3584 19.125 22.175C19.0417 21.9917 19.0333 21.8044 19.1 21.613C19.1667 21.4217 19.325 21.259 19.575 21.125C20.1583 20.825 20.625 20.4 20.975 19.85C21.325 19.3 21.5 18.6834 21.5 18C21.5 17.5167 21.4127 17.0667 21.238 16.65C21.0633 16.2334 20.8173 15.8667 20.5 15.55V16.25C20.5 16.4667 20.429 16.646 20.287 16.788C20.145 16.93 19.966 17.0007 19.75 17C19.534 16.9994 19.355 16.9284 19.213 16.787C19.071 16.6457 19 16.4667 19 16.25V14C19 13.7167 19.096 13.4794 19.288 13.288C19.48 13.0967 19.7173 13.0007 20 13H22.25C22.4667 13 22.646 13.071 22.788 13.213C22.93 13.355 23.0007 13.534 23 13.75C22.9993 13.966 22.9283 14.1454 22.787 14.288C22.6457 14.4307 22.4667 14.5014 22.25 14.5H21.575C22.0083 14.95 22.3543 15.475 22.613 16.075C22.8717 16.675 23.0007 17.3167 23 18C23 19.0167 22.725 19.9377 22.175 20.763C21.625 21.5884 20.9083 22.1924 20.025 22.575Z" fill="black"/>
</svg>
