<svg width="24" height="24" viewBox="0 0 24 24" fill="none" xmlns="http://www.w3.org/2000/svg">
<path d="M17 11.805C17 11.459 17 11.286 17.052 11.132C17.203 10.684 17.602 10.511 18.002 10.329C18.45 10.124 18.674 10.022 18.897 10.004C19.149 9.984 19.402 10.038 19.618 10.159C19.904 10.319 20.104 10.625 20.308 10.873C21.251 12.019 21.723 12.592 21.895 13.223C22.035 13.733 22.035 14.267 21.895 14.776C21.644 15.698 20.849 16.47 20.26 17.186C19.959 17.551 19.808 17.734 19.618 17.841C19.3983 17.9628 19.1474 18.0168 18.897 17.996C18.674 17.978 18.45 17.876 18.001 17.671C17.601 17.489 17.203 17.316 17.052 16.868C17 16.714 17 16.541 17 16.196V11.805ZM7 11.805C7 11.369 6.988 10.978 6.636 10.672C6.508 10.561 6.338 10.484 5.999 10.329C5.55 10.125 5.326 10.022 5.103 10.004C4.436 9.95 4.077 10.406 3.693 10.874C2.749 12.019 2.277 12.592 2.104 13.224C1.9648 13.7323 1.9648 14.2687 2.104 14.777C2.356 15.698 3.152 16.471 3.74 17.186C4.111 17.636 4.466 18.047 5.103 17.996C5.326 17.978 5.55 17.876 5.999 17.671C6.339 17.517 6.508 17.439 6.636 17.328C6.988 17.022 7 16.631 7 16.196V11.805Z" stroke="black" stroke-width="1.5"/>
<path d="M20 10.5V9C20 5.134 16.418 2 12 2C7.582 2 4 5.134 4 9V10.5M20 17.5C20 22 16 22 12 22" stroke="black" stroke-width="1.5" stroke-linecap="round" stroke-linejoin="round"/>
</svg>
